<?xml version="1.0" encoding="UTF-8"?>
<svg width="471px" height="534px" viewBox="0 0 471 534" version="1.1" xmlns="http://www.w3.org/2000/svg" xmlns:xlink="http://www.w3.org/1999/xlink">
    <!-- Generator: Sketch 52.3 (67297) - http://www.bohemiancoding.com/sketch -->
    <title>logo</title>
    <desc>Created with Sketch.</desc>
    <g id="Page-1" stroke="none" stroke-width="1" fill="none" fill-rule="evenodd">
        <g id="logo" transform="translate(-22.000000, -40.000000)">
            <g id="leave-s" transform="translate(204.000000, 0.000000)">
                <path d="M28.022065,114.208542 C56.1080952,149.944068 84.8539677,167.326587 114.326587,167.326587 C143.799207,167.326587 172.545079,149.944068 200.631109,114.208542 C174.99266,78.6218414 146.343684,61.3265871 114.326587,61.3265871 C82.3094906,61.3265871 53.6605144,78.6218414 28.022065,114.208542 Z" id="Rectangle" stroke="#777777" stroke-width="20" fill="#D8F5A2" transform="translate(114.326587, 114.326587) rotate(-45.000000) translate(-114.326587, -114.326587) "></path>
                <rect id="Rectangle" fill="#777777" transform="translate(83.708892, 147.859650) rotate(-45.000000) translate(-83.708892, -147.859650) " x="43.2088924" y="137.85965" width="81" height="20" rx="10"></rect>
            </g>
            <g id="leave-l" transform="translate(228.000000, 139.000000)">
                <path d="M32.925703,161.081364 C74.0932192,212.778473 116.630515,238.148178 160.642081,238.148178 C204.653647,238.148178 247.190943,212.778473 288.35846,161.081364 C250.803327,109.467292 208.365078,84.148178 160.642081,84.148178 C112.919084,84.148178 70.4808353,109.467292 32.925703,161.081364 Z" id="Rectangle" stroke="#777777" stroke-width="20" fill="#51CF66" transform="translate(160.642081, 161.148178) rotate(-45.000000) translate(-160.642081, -161.148178) "></path>
                <rect id="Rectangle" fill="#777777" transform="translate(95.781746, 221.781746) rotate(-45.000000) translate(-95.781746, -221.781746) " x="-4.21825407" y="211.781746" width="200" height="20" rx="10"></rect>
            </g>
            <g id="leave-m" transform="translate(0.000000, 90.000000)">
                <path d="M32.2486827,145.007389 C68.740408,192.062026 106.3301,215.085732 145.085732,215.085732 C183.841364,215.085732 221.431056,192.062026 257.922782,145.007389 C224.628829,98.0477888 187.139732,75.0857321 145.085732,75.0857321 C103.031733,75.0857321 65.5426352,98.0477888 32.2486827,145.007389 Z" id="Rectangle" stroke="#777777" stroke-width="20" fill="#A9E34B" transform="translate(145.085732, 145.085732) rotate(45.000000) translate(-145.085732, -145.085732) "></path>
                <rect id="Rectangle" fill="#777777" transform="translate(202.315494, 201.315494) rotate(45.000000) translate(-202.315494, -201.315494) " x="121.815494" y="191.315494" width="161" height="20" rx="10"></rect>
            </g>
            <path d="M257.606609,169 L258.358329,169 C264.291704,169 269.155871,173.705715 269.352299,179.635838 L277.848553,436.135913 L237.269302,436.135913 L246.6139,179.599579 C246.829373,173.684196 251.687302,169 257.606609,169 Z" id="Rectangle" fill="#777777"></path>
            <g id="ground" transform="translate(22.000000, 418.000000)">
                <path d="M38.6405728,98.4314033 C91.4687595,93.5255949 129.258491,88.3550982 152.009769,82.919913 C174.761046,77.4847278 202.727389,67.6862944 235.908797,53.5246128 C258.501495,67.7676747 281.85469,77.5661081 305.968381,82.919913 C330.082072,88.2737178 370.623425,90.9273639 427.592441,90.8808512 L455,155 L32,155 L38.6405728,98.4314033 Z" id="Rectangle" fill="#CEA988"></path>
                <text id="{" transform="translate(279.500000, 83.500000) rotate(90.000000) translate(-279.500000, -83.500000) " font-family="ArialMT, Arial" font-size="500" font-weight="normal" fill="#777777">
                    <tspan x="196.003906" y="257">{</tspan>
                </text>
            </g>
        </g>
    </g>
</svg>